<svg id="Layer_1" data-name="Layer 1" xmlns="http://www.w3.org/2000/svg" viewBox="0 0 91.44 128.32"><defs><style>.cls-1{fill:#1d1d1b;}</style></defs><path class="cls-1" d="M29.22,59.3V52.36A16.6,16.6,0,0,1,31.44,44a17.32,17.32,0,0,1,6-6.23,15.77,15.77,0,0,1,16.5,0A17.23,17.23,0,0,1,60,44a16.61,16.61,0,0,1,2.23,8.35V59.3h8.3V52.36A24,24,0,0,0,67.19,40a25,25,0,0,0-9.06-9,24.71,24.71,0,0,0-24.81,0,25,25,0,0,0-9.07,9,24,24,0,0,0-3.34,12.35V59.3Z"/><path class="cls-1" d="M62.23,69V76A16.61,16.61,0,0,1,60,84.31a17.16,17.16,0,0,1-6,6.23,15.77,15.77,0,0,1-16.5,0,17.24,17.24,0,0,1-6-6.23A16.6,16.6,0,0,1,29.22,76V69H20.91V76a24,24,0,0,0,3.34,12.35,24.88,24.88,0,0,0,9.07,9,24.71,24.71,0,0,0,24.81,0,24.93,24.93,0,0,0,9.06-9A24,24,0,0,0,70.53,76V69Z"/></svg>